<svg width="640" height="480" xmlns="http://www.w3.org/2000/svg">

 <g>
  <title>Layer 1</title>
  <path stroke="null" id="svg_1" d="m508.56424,130.34327c46.38189,64.20561 56.99469,157.26766 15.72267,216.7841c-41.27202,59.51643 -134.03579,85.84795 -222.47583,83.68371c-88.44004,-2.52494 -172.16327,-33.54563 -202.42942,-87.29077c-29.87308,-53.74514 -6.28907,-130.21474 35.76908,-192.25611c42.05815,-62.04137 102.19738,-109.65452 173.34247,-115.42581c71.1451,-5.77129 153.68913,29.93857 200.07102,94.50488z" fill="#A7F0BA"/>
  <defs>
   <linearGradient y2="0" x2="0.5" y1="1" x1="0.5" id="svg_49">
    <stop stop-opacity="0.25" stop-color="gray" offset="0"/>
    <stop stop-opacity="0.12" stop-color="gray" offset="0.54"/>
    <stop stop-opacity="0.1" stop-color="gray" offset="1"/>
   </linearGradient>
  </defs>
  <g stroke="null" id="svg_65">
   <g stroke="null" transform="matrix(0.381091 0 0 0.389686 -225.991 -113.885)" id="svg_51" opacity="0.5">
    <circle stroke="null" id="svg_52" fill="url(#svg_49)" r="349" cy="937.6385" cx="1432.70769"/>
   </g>
   <circle stroke="null" transform="matrix(0.381091 0 0 0.389686 -225.991 -113.885)" id="svg_53" fill="#f5f5f5" r="341.64001" cy="935.4085" cx="1433.38763"/>
   <path stroke="null" id="svg_54" fill="#bfbf00" d="m320.38106,384.28934a129.57078,132.49336 0 0 0 71.56499,-21.90037c-4.79793,-26.81042 -23.05598,-28.33799 -23.05598,-28.33799l-100.68412,0s-17.2291,1.44574 -22.6101,26.10899a129.59746,132.52064 0 0 0 74.78521,24.12938z"/>
   <circle stroke="null" transform="matrix(0.381091 0 0 0.389686 -225.991 -113.885)" id="svg_55" fill="#333" r="164.89999" cy="928.2085" cx="1430.07763"/>
   <path stroke="null" id="svg_56" opacity="0.1" d="m298.71606,301.3485l40.26603,0a0,0 0 0 1 0,0l0,32.94019a20.13301,20.58713 0 0 1 -20.12539,20.58713l0,0a20.13301,20.58713 0 0 1 -20.13301,-20.58713l0,-32.94019a0,0 0 0 1 0,0l-0.00762,0z"/>
   <path stroke="null" id="svg_57" fill="#fdb797" d="m299.99272,299.82092l37.72796,0a1.27665,1.30545 0 0 1 1.27665,1.30545l0,31.63474a20.13301,20.58713 0 0 1 -20.14064,20.59103l0,0a20.13301,20.58713 0 0 1 -20.13301,-20.58713l0,-31.63864a1.27665,1.30545 0 0 1 1.26903,-1.30545z"/>
   <path stroke="null" id="svg_58" opacity="0.1" d="m298.78847,316.89698a57.95244,59.25961 0 0 0 40.26603,0.11301l0,-5.06592l-40.26603,0l0,4.95291z"/>
   <circle stroke="null" transform="matrix(0.381091 0 0 0.389686 -225.991 -113.885)" id="svg_59" fill="#fdb797" r="151.45" cy="961.0785" cx="1430.07763"/>
   <path stroke="null" id="svg_60" opacity="0.1" d="m277.88565,206.95087s24.32501,50.48777 92.94036,21.16776l-15.97532,-25.61408l-28.31884,-10.39294l-48.64621,14.83926z"/>
   <path stroke="null" id="svg_61" fill="#333" d="m277.88565,206.21047s24.32501,50.48777 92.94036,21.15997l-15.97532,-25.61408l-28.31884,-10.39294l-48.64621,14.84705z"/>
   <path stroke="null" id="svg_62" fill="#333" d="m277.67224,202.78902a33.34161,34.09366 0 0 1 8.26585,-13.74424c11.35269,-11.47626 29.96515,-13.89622 39.51147,-26.98188c2.28654,3.63188 0.51828,9.21608 -3.42981,10.77483c9.14617,-0.06235 19.7443,-0.88069 24.9157,-8.5731a17.10715,17.49302 0 0 1 -2.88486,18.47113c8.1058,0.38969 16.76798,6.00117 17.27865,14.28201c0.3506,5.51796 -3.04872,10.73976 -7.46556,13.90401s-9.79784,4.61778 -15.07594,5.80633c-15.4113,3.4799 -71.17247,18.04248 -61.11549,-13.93908z"/>
   <ellipse stroke="null" transform="matrix(0.381091 0 0 0.389686 -225.991 -113.885)" id="svg_63" fill="#fdb797" ry="26.42" rx="14.09" cy="960.9385" cx="1278.56763"/>
   <ellipse stroke="null" transform="matrix(0.381091 0 0 0.389686 -225.991 -113.885)" id="svg_64" fill="#fdb797" ry="26.42" rx="14.09" cy="960.9385" cx="1581.50763"/>
  </g>
 </g>
</svg>